<svg xmlns="http://www.w3.org/2000/svg" viewBox="0 0 765.8 590.7"><title>2020logo0</title>
<defs><style>svg {fill:url(#logo-gradient)}
    <!-- transform: matrix(-1, 0, 0, 1, 0, 0);  -->
  }</style> <linearGradient id="logo-gradient" x1="50%" y1="0%" x2="50%" y2="100%" >

            <stop offset="0%" stop-color="#2A9FD6">
                <animate attributeName="stop-color" values="#2A9FD6; #9933CC; #2A9FD6" dur="4s" repeatCount="indefinite"></animate>
            </stop>

            <stop offset="100%" stop-color="#2A9FD6">
                <animate attributeName="stop-color" values="#9933CC; #2A9FD6; #9933CC" dur="6s" repeatCount="indefinite"></animate>
            </stop>

        </linearGradient>
      </defs>
<g id="Layer_2" data-name="Layer 2"><g id="Layer_1-2" data-name="Layer 1"><path d="M765.8,386.4c0,112.6-100.3,204.3-223.5,204.3-62.3,0-121.4-24-163.2-64.7C337.8,563,282,584,224,584.1h-.9c-86.4,0-165.7-46.2-202.3-118l-.1-.3a216.21,216.21,0,0,1-10-23.2l-.1-.4A188.53,188.53,0,0,1,0,380.66V297.35H183.3v74H73.62v9.32h0a114.32,114.32,0,0,0,6.39,37,132.52,132.52,0,0,0,6.4,15c24.2,47.4,78.1,77.9,137.3,77.6,43.1-.1,84-16.6,112.3-45.1,23.9-23.9,36.8-54.6,36.8-86.1v-7.5h73.6v7.3a189,189,0,0,1-21.5,88.4c28.2,31,71.4,49.6,117.5,49.6,82.7,0,149.9-58.6,149.9-130.6s-67.2-130.7-150-130.7c-40.9,0-79.2,14.2-107.7,39.9l-49.3-54.6c42.1-37.9,97.8-58.8,157-58.8C665.6,182.2,765.8,273.8,765.8,386.4Z"/><path d="M430.8.3c-20,0-40.1.1-60.1,0V0Z"/><path d="M444,182.2l-73.6.2c-.1-36.1-.1-72.4,0-108.4-36.7,0-73.4-.1-109.5-.4L261.2,0c36.1.2,72.7.3,109.4.4h60.1L443,.5h1.2C443.9,60.3,443.8,121.5,444,182.2Z"/><path d="M443.1.3Z"/></g></g></svg>