<svg xmlns="http://www.w3.org/2000/svg" xmlns:xlink="http://www.w3.org/1999/xlink" viewBox="0 0 1118.53 678.8"><defs><style>.cls-1{opacity:0.5;}.cls-2{fill:#e2e2e2;}.cls-3{fill:#efeded;}.cls-4{opacity:0.79;}.cls-5{fill:#bcbcbc;}.cls-6{fill:url(#linear-gradient);}.cls-7{fill:#fff;}.cls-10,.cls-8{opacity:0.6;}.cls-14,.cls-17,.cls-9{opacity:0.8;}.cls-10,.cls-14,.cls-17{isolation:isolate;}.cls-11{fill:#fbfbfb;}.cls-12{opacity:0.95;}.cls-13{fill:#0f0f0f;}.cls-14,.cls-16{fill:#000;}.cls-15{fill:url(#linear-gradient-2);}</style><linearGradient id="linear-gradient" x1="-112.97" y1="-1125.65" x2="294.93" y2="-1125.65" gradientTransform="translate(287 1187)" gradientUnits="userSpaceOnUse"><stop offset="0" stop-color="#fff"/><stop offset="0.87" stop-color="#fff"/><stop offset="1" stop-color="#fff"/></linearGradient><linearGradient id="linear-gradient-2" x1="155.94" y1="-747.75" x2="155.94" y2="-1129.35" gradientTransform="translate(287 1187)" gradientUnits="userSpaceOnUse"><stop offset="0" stop-color="#b3b3b3"/><stop offset="0.36" stop-color="#e3ecef"/><stop offset="0.95" stop-color="#fdfdfe"/><stop offset="0.99" stop-color="#fff"/></linearGradient></defs><title>moon-landing1</title><g id="Layer_2" data-name="Layer 2"><g id="Layer_1-2" data-name="Layer 1"><g class="cls-1"><g id="Layer_2-2" data-name="Layer 2-2"><g id="Layer_1-2-2" data-name="Layer 1-2-2"><path class="cls-2" d="M235.23,678.6h-68.1a104.64,104.64,0,0,1,13.6-3.6C202.83,670.8,223.63,674.8,235.23,678.6Z"/><path class="cls-2" d="M1118,388.1a18.41,18.41,0,0,1-.3,3.3,17.19,17.19,0,0,1-1.8,5.4l-.2.3q-4.65,4.8-9.6,9.6c-21.1,18.2-41.6,32.5-41.6,32.5-18.2,12.7-22.1,19.1-27.8,24.5-4.3,2.9-8.5,5.7-12.7,8.4l-1.4,1-.8.1c-24.3,3.4-40.3,10.7-50.6,17a2.09,2.09,0,0,0-.6.4,16.92,16.92,0,0,1-3.1,1.3c-2.6.8-6.3,1.7-10.5,2.6h0l-1.1.2c-12.4,2.5-29.2,5.3-37.8,8.2-9.3,3.2-9.6,7.1-18.9,12.6-3.7,2.2-12.3,6.7-48.6,7.2-16.8.2-35.8.4-61.3-3.6a316.31,316.31,0,0,1-34.5-7.4l-2.3-.6h0l-.2-.1a43.79,43.79,0,0,0-16.2,11.7c-9.3,10.9-7.5,20.8-15.3,33.3-3.5,5.5-9.5,12.7-20.7,18.9h0l-.3.1-.3.1c-5.5,1.2-14.2,4.1-21.1,11.5-13.7,14.8-10.3,36.8-8.1,50.5.5,2.9,1.5,14.5,2.6,29.4h0c0,.6.1,1.3.1,1.9.2,3.3.5,6.8.7,10.4H252.53a13.36,13.36,0,0,1-.7-1.8,18.6,18.6,0,0,1-.1-10.2c-6.3,1.8-26.4-4.5-52.1-.6a121.51,121.51,0,0,0-38,12.6H2.93a279.79,279.79,0,0,1,15.3-91.2q-9-45.6-18-91c-.3-3.6-2.7-39.3,18.9-52.2a29.28,29.28,0,0,1,9-3.6l15.3-4.4h.1l100.8-28.9v-.4h0l-1.8-40.2a18.84,18.84,0,0,1-1.8-9.9c.8-7.8,7-12.9,10.8-16.2a379.29,379.29,0,0,0,28.8-27.9c-1.8-3.2-3.6-7.7-2.7-12.6,1.1-5.4,5-8.7,9.2-12.2h0c.8-.7,1.7-1.4,2.5-2.2a60.74,60.74,0,0,0,9.1-10.5h0a78.18,78.18,0,0,0,6.5-12.1h0c.2-.5.5-1.1.7-1.7a.37.37,0,0,0-.1-.3h0q-15.75-69.3-31.4-138.6l.8.1c4.3.4,10.9-.4,21.3-1.7,13.3-1.7,28.1-3.8,44.2-6.3L354,84.2h0l95.9-25.9h0l131.4-35.4a155.31,155.31,0,0,0-18-9.6l-1.5-.6c-1.1-.5-2.3-1-3.5-1.5A146,146,0,0,0,511.93.4c-1.4-.1-2.9-.1-4.2-.2a126.25,126.25,0,0,1,20.4,1.1,131.28,131.28,0,0,1,33.3,9l36,21.6A428.52,428.52,0,0,1,628.93,203c1.4,5.9,4.3,22.2-3.6,39.6a60.1,60.1,0,0,1-14.4,19.8,32.74,32.74,0,0,0,8.1,7.2c3.8,2.4,5.8,2.5,7.2,4.5,2.1,3.1.8,7.8-1.8,13.5a95.66,95.66,0,0,1-13.5,22h0c-.6.7-1.2,1.5-1.8,2.2a232.31,232.31,0,0,1,30.6,9.9c3.4,1.4,6.6,2.8,9.7,4.2l.2.1c1,.5,2,1,3,1.4q7.2,3.45,13.2,6.9l.2-.1h0l10.6-2.9a55.36,55.36,0,0,0,14.9-3.8l46.3-11.2a.31.31,0,0,0,.1.2h0a28.64,28.64,0,0,0,5.9,7.9,21.75,21.75,0,0,0,9.8,6.9,18.9,18.9,0,0,0,4.1,1l.6.1a22.85,22.85,0,0,0,9.4-.8,84.79,84.79,0,0,0,23.3-4.3c3.1-1,5.8-2.1,8.2-3.1l13.2-2.6h1.1a3.55,3.55,0,0,1,1,.2,27.35,27.35,0,0,1,12.6,6.3l28.8-11.7,40.5,12.6h0c1.5-3.8,3-7.7,4.5-11.6l10.8-3.6c-.2-2-.5-4-.7-6l-.5-4-2.4-19.8-.2-.1h0l-.1-.1a112.22,112.22,0,0,1-38.5-68.3c-11.1-7.9-16.7-16.2-19.8-22.5-5-10.1-4.9-18.2-12.6-26.1a35.53,35.53,0,0,0-14.4-9c-3,0-6.7-.4-8.1-2.7-1.6-2.8,1.1-6.5,1.9-9.3a7.84,7.84,0,0,0,.2-1.4h0a1.69,1.69,0,0,0-.3-1c-2.1-3.1-12.7,1.2-24.3,4.5a133.78,133.78,0,0,0-31.6,13.5c-12.3,3.7-17.8,5.3-18,5.4l-.2.1-8.3,3.3h0l-16.7,6.6a17,17,0,0,1-2.2.4h0c-3.4.6-6.4.6-8-.7-.2-.2-.5-.4-.6-.7-1.7-2.4,1.2-6.6,1.9-9.1h0a1.9,1.9,0,0,0-.1-1.7,1.13,1.13,0,0,0-1.1-.3h0c-1.5.2-4.5,1.6-9.7,5.1h0a31,31,0,0,0-2.6,1.8h0q-1.5,1.05-3.3,2.4h0l-1.3,1-1.4-.3h-.4a127.6,127.6,0,0,1-15.7-4.6h0a120.06,120.06,0,0,1-18.2-8.4h0c-.1-.1-.2-.1-.3-.2,1.7-14.9,3.8-26.4,5.4-34.2,2.5-12,3.8-14.7,3.6-21.6-.2-7.6-2-12,.9-15.3,3.3-3.7,8.2-.8,12.6-4.5,4.7-4,2-9.6,4.6-14.1a2.09,2.09,0,0,1,.4-.6h0a2.65,2.65,0,0,1,.5-.6c3.1-3.7,7.7-2.6,15.6-1.9h0a76.82,76.82,0,0,0,15.9.1A163.18,163.18,0,0,0,746,61.7l1.3-.5h0c4.2-1.4,7.9-2.6,13-2.3a30.71,30.71,0,0,1,14.9,5.5h0c.8.6,1.6,1.1,2.3,1.7l1.6-.5h0c21.7-6.9,37.4-3.4,44.3-1.3,9.4,2.9,17.1,7.7,25.2,12.6a171.61,171.61,0,0,1,24.3,18h6.3l87.4,79.3L963,193.1l28.8,5.4,31.5,52.2a37.88,37.88,0,0,1,3.6,1.2l.6.2a45.22,45.22,0,0,1,5,2.3l8.6,5.9a27.55,27.55,0,0,1,3,2.9,176.1,176.1,0,0,0,10.5,21.9c4.4,11.4,12.2,19.9,21,29.2s18.5,19.3,27,33.7A120.12,120.12,0,0,1,1118,388.1Z"/><path class="cls-3" d="M581.93,22.7l-340.6,91.9c-16,2.5-30.8,4.6-44.2,6.3-11,1.4-17.9,2.2-22.1,1.6l-1-4.3c2.4-7.9,11.5-34.8,38.7-51.3,2.2-1.3,4.4-2.5,6.5-3.6,11.1-2.9,34-8.6,62-15.7,95-20.8,164.7-35.7,194.4-42.9A144.18,144.18,0,0,1,508.33,0c1.4,0,2.8.1,4.2.2C544.33,2.1,568.43,14.4,581.93,22.7Z"/><g class="cls-4"><polygon class="cls-5" points="711.52 196.9 699.83 211.3 680.92 211.3 662.92 196.9 679.83 173 687.23 175.3 707.02 165.3 705.23 176.2 716.02 177.1 734.02 170 711.52 196.9"/></g><g class="cls-1"><path class="cls-6" d="M581.93,22.7l-340.6,91.9c-16,2.5-30.8,4.6-44.2,6.3-11,1.4-17.9,2.2-22.1,1.6l-1-4.3c2.4-7.9,11.5-34.8,38.7-51.3,2.2-1.3,4.4-2.5,6.5-3.6,11.1-2.9,34-8.6,62-15.7,95-20.8,164.7-35.7,194.4-42.9A144.18,144.18,0,0,1,508.33,0c1.4,0,2.8.1,4.2.2C544.33,2.1,568.43,14.4,581.93,22.7Z"/></g><path class="cls-7" d="M144.63,406.7c-21.2,4.8-43.6,10.7-67.2,18-20,6.2-38.9,12.9-56.5,19.8-1.2,1.4-19.2,23.2-12.3,45a34.48,34.48,0,0,0,6.5,11.7,73.14,73.14,0,0,0,23.8,7.3c46.7,5.6,82.1-38.8,87.7-45.9l5.7,21.6a40.69,40.69,0,0,0,20.5-15.3,46.75,46.75,0,0,0,7.4-18,58.32,58.32,0,0,0-3.3-33.3Z"/><g class="cls-8"><path class="cls-7" d="M757.93,59.2c6.5,1.7,12,3.3,16.2,4.5,18.1,5.3,25.6,8.2,32.4,14.4,3.2,2.9,6,5.5,5.4,8.1-.8,3.8-7.7,4-25.2,8.1-14,3.3-15.3,4.5-28.8,7.2-7.4,1.5-13.5,2.5-15.3,2.7-20.8,2.9-47.6-9.4-62.1-17.1l.9-16.2Z"/></g><g class="cls-9"><polygon class="cls-10" points="816.42 145.3 823.63 122.8 816.42 103.9 828.13 130.9 840.73 103.9 832.63 138.1 840.73 124.6 833.52 145.3 840.73 145.3 820.02 156.1 818.73 152.2 816.42 145.3"/></g><g class="cls-8"><path class="cls-11" d="M235.23,678.6h-68.1a104.64,104.64,0,0,1,13.6-3.6C202.83,670.8,223.63,674.8,235.23,678.6Z"/><path class="cls-11" d="M256.33,581.4c9.6,30.2,14.4,45.3,8.1,60.3a70,70,0,0,1-4.9,9.4,126.64,126.64,0,0,0-6.3,11.4,29.91,29.91,0,0,0-1.5,4.2c-6.3,1.8-26.4-4.5-52.1-.6a121.51,121.51,0,0,0-38,12.6H95.33c-.7-3.3-1.3-6.6-2-9.9l-9-14.4,24.3-132.3,49.5-52.3,4.5-21.6,48.6-54.9,54-13.5,6.4-44.1h14.3l-19.8,54.9a117.77,117.77,0,0,0-81,57.6c-6.9,6.4-17.3,18-21.6,35.1-1.8,6.9-2.7,10.7-.9,14.4,6.1,12.8,32.2,1.2,54.9,12.6,7.4,3.7,13,9.1,17.7,16.7,4,6.4,7.5,14.3,11,24C249.43,559.6,252.63,569.7,256.33,581.4Z"/></g><g class="cls-8"><path class="cls-7" d="M788.53,397.7l8.4-25.4A82.54,82.54,0,0,1,788.53,397.7Z"/></g><path class="cls-7" d="M813.73,321.2c0,.1,0,.2-.1.2l-16.7,50.9c1.5-10.7-.3-19.7-5.7-25-8.3-8-24.1-5.9-48.6-2.7a150,150,0,0,0-18.9,3.6,166,166,0,0,0-30.6,10.8l-34.3-20.7-12.6-.9a9,9,0,0,1-17.1-1.8c-9,.7-17.4-3.5-21.6-10.8a22.29,22.29,0,0,1-1.8-17.1c2,.6,4,1.2,5.9,1.8-.6.7-1.2,1.5-1.8,2.2a232.31,232.31,0,0,1,30.6,9.9c3.4,1.4,6.6,2.8,9.7,4.2l.2.1c1,.5,2,1,3,1.4q7.2,3.45,13.2,6.9l10.8-3a55.36,55.36,0,0,0,14.9-3.8l46.2-11.3a27.55,27.55,0,0,0,6,8,21.75,21.75,0,0,0,9.8,6.9,22.66,22.66,0,0,0,14.1.2,84.79,84.79,0,0,0,23.3-4.3c3.1-1,5.7-2.1,8.2-3.1l13.2-2.6Z"/><g class="cls-12"><path class="cls-13" d="M908,283.6l-.1-14.5,2.9,34.4-2.4-19.7Z"/></g><g class="cls-8"><path d="M989.73,379.4l-66.6-45.9,24.3,63.9-34.2-63.9-12.6-12.6,3.6,23.5L897,328.9c1.5-3.8,3-7.7,4.5-11.6l10.8-3.6c-.2-2-.5-4-.7-6L933,328.2l60.3,40.5-20.7-6.3Z"/></g><g class="cls-9"><path d="M1118.53,388.2a18.41,18.41,0,0,1-.3,3.3,17.19,17.19,0,0,1-1.8,5.4l-.2.3-9.6,9.6c-21.1,18.2-41.6,32.4-41.6,32.4-18.2,12.7-22.1,19.1-27.8,24.5-3,2.9-6.4,5.4-12.6,8.4l-1,.5-1.2.5c-24.3,3.4-40.3,10.7-50.6,17l-.6.3h0l-3,1.3c-2.8.9-6.9,1.8-11.6,2.8l2.2-1.3L966,486l13.2-3.8,8.5-2.5,18.9-9,5.4-8.1.9-13.5-6.3-4.5h9.9l19.8-1.8,14.4-8.1,7.2-19.8,8.1-17.1,15.3-14.4,2.7-12.6v-7.2l-18.9-30.6-23.4-30.6-8.1-27-5.9-23.6a56.16,56.16,0,0,1,5.6,2.5l8.6,5.9,2.9,2.9a176.1,176.1,0,0,0,10.5,21.9h0c8.9,22.8,31.1,34,47.9,62.8A127.77,127.77,0,0,1,1118.53,388.2Z"/></g><g class="cls-1"><polygon class="cls-7" points="205.43 260.9 224.32 266.3 256.73 281.6 227.03 318.5 214.43 320.3 187.43 307.7 180.22 300.5 180.22 296 191.93 281.6 203.63 269.9 205.43 260.9"/></g><g class="cls-8"><polygon class="cls-13" points="680.42 115 678.52 124.9 678.52 156.4 678.52 167.2 683.33 170.8 687.13 173.6 669.92 169.1 652.63 161.8 656.52 161 674.73 169.1 675.63 164.5 675.63 133 676.63 123.1 677.52 117.7 680.42 115"/></g><path class="cls-14" d="M491.43,65.5l82.8-21.6a8.71,8.71,0,0,1,12.3-.9,9,9,0,0,1,2.1,2.7L603,88l-.9,4.5L558,114.1l-3.6-4.5c4.1-1.3,10-3.4,17.1-6.3,13.4-5.6,20.2-8.5,22.5-13.5,1.4-3.1.1-9.6-2.7-22.5-3-13.9-4.5-15.9-6.3-17.1-4.9-3.2-11.8-.1-18.9,2.7a287.6,287.6,0,0,1-40.5,12.6l-22.5,5.4Z"/><g class="cls-8"><polygon class="cls-13" points="688.33 174.5 707.23 164.5 707.23 123.1 710.83 120.4 709.02 163.6 710.83 164.5 701.83 171.7 688.33 174.5"/></g><g class="cls-9"><path d="M635.63,474.3c-6.2-8.4-10.3-14.6-10.1-14.8S631.43,467,635.63,474.3Z"/></g><g class="cls-9"><path d="M707.43,445.2q0,.15-.3,1.5Z"/></g><g class="cls-9"><path d="M782,440.2a65,65,0,0,1-8.6,16C777.53,448.3,781.13,441.9,782,440.2Z"/></g><g class="cls-9"><path d="M782.23,439.8c0,.1-.1.2-.1.3C782.13,439.9,782.13,439.8,782.23,439.8Z"/></g><g class="cls-9"><path d="M896.53,392.9a54.92,54.92,0,0,0-21.6,34.2l1.8,90.9a283.92,283.92,0,0,1-120.6-7.2l-.7.5-2.5-.6a43.79,43.79,0,0,0-16.2,11.7c-9.3,10.9-7.5,20.8-15.3,33.3-3.4,5.5-9.5,12.7-20.7,18.9-5.5,1.2-14.5,4-21.6,11.7-13.7,14.8-10.2,36.7-8.1,50.4.5,3.1,1.6,15.4,2.8,31.3l-5-13.1c.3-1.5,3.5-21.2-9.9-33.3-11.1-10.1-26.2-8.1-33.3-7.2a54.41,54.41,0,0,0-20.7,7.2l9.9-7.2-44.1-7.2a92.8,92.8,0,0,1,30.6-2.7c12.4,1,17.8,4.1,30.6,5.4a103.7,103.7,0,0,0,32.4-1.8l4.5-19.8a160.93,160.93,0,0,0-60.3-44.1l22.4,4.5c-6.9-3-14.8-6.7-14.4-8.1.3-1,4.6-.4,7.2,0,7.5,1.1,19.9,3,37.8,6.3-1.5-13-5.7-32.2-19.8-48.6-12.9-15-30.9-23.9-30.6-24.3s25.1,17.4,28.8,13.5c1.6-1.7-1-7.3-4.3-13.2,13.1,17.8,35.4,45.4,45.7,45.6,1.9,0,8.4.2,10.8-3.6a6.18,6.18,0,0,0,.9-2.7c1-8.7,12.1-57.5,14.1-66.9a319.81,319.81,0,0,0-3.8,32.9c-1.1,17-2.3,34.4,2.3,35.7,4.3,1.3,12.8-11.6,16.3-23.4a50.15,50.15,0,0,0,1.8-18.9c12.4,1.9,26.8,1.7,38.7-6.3a48.1,48.1,0,0,0,11-10.6c-7.9,15-17.9,35.2-14.6,37.6,4.2,3,31.8-20.1,43.2-47.7,1.3-3,2.9-7.4,6.3-15.3,6.4-14.5,15-32,16.2-31.6.7.3-1.5,6.7-9.9,31.6-13.9,40.8-18.2,53.3-14.4,55.8,2.8,1.8,8.4-2.5,9.9-3.6,9.5-7.1,9.4-17.5,14.4-32.4,7-20.9,18.1-33.7,18.9-33.3.6.3-4,7.2-2.7,16.2a25.16,25.16,0,0,0,4.5,10.8,113.31,113.31,0,0,0-7.2,9.9c-7.7,11.8-5.2,12.7-12.6,27.9a7,7,0,0,0-.9,4.5c1.1,4.8,9.4,6.6,12.6,7.2,46.4-101.3,58.3-127,58.5-126.9a29.27,29.27,0,0,0-2.8,10.8A32,32,0,0,0,896.53,392.9Z"/></g><path class="cls-13" d="M347.83,678.6h-5.7c19.8-18.4,40-38.2,40.4-37.8S366.33,656,347.83,678.6Z"/><path class="cls-13" d="M381.33,678.6h-10.9c13.3-7,24-10.2,24.6-9C395.53,670.5,389.63,673.1,381.33,678.6Z"/><path class="cls-15" d="M595.43,312.6c8-25.8,6.1-49.1,3.6-80.1-1.3-16.6-2.6-35.9-9-55.8-4.6-14.1-24.2-75-81.9-103.5-53.4-26.4-120.5-18-161.2,16.2-21.5,18.1-33.4,41.4-37.9,50.3-9.2,18.1-15.2,37.4-19.7,72.2a581.18,581.18,0,0,0-1.8,130.5,152.85,152.85,0,0,0,36,54c3.1,3,58.5,54.3,131.4,40.5,38.5-7.3,62.8-29.1,86.4-50.4C561.43,368.4,584.53,347.6,595.43,312.6Z"/><path class="cls-16" d="M294.93,220.8A288.9,288.9,0,0,1,429,195.6c76,4.2,129.5,37.7,151.3,53.1l-3.6,75.6a186.8,186.8,0,0,1-51.3,62.1c-15.5,12-65.4,50.7-129.6,36.9-69.5-14.9-99.4-79.1-102.6-86.4Z"/><path class="cls-17" d="M323.33,678.6h-70.8a13.36,13.36,0,0,1-.7-1.8,18.6,18.6,0,0,1-.1-10.2,2.29,2.29,0,0,0,1.9-1.5,3.64,3.64,0,0,0-.4-2.7c-1.6-3.1-6.5-7-11.3-9-8.5-3.7-16.9-1.5-19.8-.9-27.7,5.5-64.6-33.2-63.9-34.2.5-.7,16.5,21,45,25.2,21.2,3.1,40.1-4.9,55.8,7.2l.5.4c2.4,1.9,4.6,3.9,6.8,3.2,6.9-2.2,4.2-29.9,1.8-44.1-4-23.6-13-43.8-21.8-59.3-11.9-20.9-23.5-33.4-22.3-34.3.8-.6,5.4,3.8,11.3,10.3,5.6,6.2,12.4,14.3,18.4,22.1,2.6,3.4,4.7,6.2,5.4,7.2,21.6,30.1,21,93.4,25.2,93.6,2.5.1,9.2-21.9,7.2-51.3-2.8-41.1-20.6-67-18-68.4s26,23.9,35.1,61.2c8.4,34.2.9,62.8,2.7,63,3,.4,14.2-83.3,19.8-82.8,2.8.2,5.2,21.3,1.8,43.2-4.8,31.3-19.1,49.2-16.2,51.3,5.6,4.2,59.9-60.5,61.2-59.4C379,607.5,345.63,648.6,323.33,678.6Z"/></g></g></g></g></g></svg>
